<mxfile host="Electron" agent="Mozilla/5.0 (Windows NT 10.0; Win64; x64) AppleWebKit/537.36 (KHTML, like Gecko) draw.io/27.0.9 Chrome/134.0.6998.205 Electron/35.4.0 Safari/537.36" version="27.0.9">
  <diagram name="Page-1" id="WlCyCTKdxTPFhKwNwVEV">
    <mxGraphModel dx="1129" dy="662" grid="1" gridSize="10" guides="1" tooltips="1" connect="1" arrows="1" fold="1" page="1" pageScale="1" pageWidth="850" pageHeight="1100" math="0" shadow="0">
      <root>
        <mxCell id="0" />
        <mxCell id="1" parent="0" />
        <mxCell id="s_enHsbSLCVRt0OUGtz8-1" value="Cliente" style="whiteSpace=wrap;html=1;align=center;fillColor=#f0a30a;strokeColor=#BD7000;fontColor=#000000;" parent="1" vertex="1">
          <mxGeometry x="50" y="140" width="100" height="40" as="geometry" />
        </mxCell>
        <mxCell id="s_enHsbSLCVRt0OUGtz8-2" value="Cuenta" style="whiteSpace=wrap;html=1;align=center;fillColor=#f0a30a;strokeColor=#BD7000;fontColor=#000000;" parent="1" vertex="1">
          <mxGeometry x="50" y="470" width="100" height="40" as="geometry" />
        </mxCell>
        <mxCell id="s_enHsbSLCVRt0OUGtz8-22" value="Sucursal" style="whiteSpace=wrap;html=1;align=center;fillColor=#f0a30a;strokeColor=#BD7000;fontColor=#000000;" parent="1" vertex="1">
          <mxGeometry x="430" y="460" width="100" height="40" as="geometry" />
        </mxCell>
        <mxCell id="s_enHsbSLCVRt0OUGtz8-30" value="" style="endArrow=none;html=1;rounded=0;" parent="1" source="WPeZcVtWTrE09q6uw6rg-4" target="s_enHsbSLCVRt0OUGtz8-31" edge="1">
          <mxGeometry relative="1" as="geometry">
            <mxPoint x="553.7037082348922" y="180" as="sourcePoint" />
            <mxPoint x="450" y="245" as="targetPoint" />
          </mxGeometry>
        </mxCell>
        <mxCell id="s_enHsbSLCVRt0OUGtz8-31" value="&lt;u&gt;Num_transaccion&lt;/u&gt;" style="ellipse;whiteSpace=wrap;html=1;align=center;" parent="1" vertex="1">
          <mxGeometry x="520" y="30" width="50" height="30" as="geometry" />
        </mxCell>
        <mxCell id="s_enHsbSLCVRt0OUGtz8-32" value="" style="endArrow=none;html=1;rounded=0;" parent="1" source="WPeZcVtWTrE09q6uw6rg-4" target="s_enHsbSLCVRt0OUGtz8-33" edge="1">
          <mxGeometry relative="1" as="geometry">
            <mxPoint x="563.1138298716417" y="180" as="sourcePoint" />
            <mxPoint x="495" y="335" as="targetPoint" />
          </mxGeometry>
        </mxCell>
        <mxCell id="s_enHsbSLCVRt0OUGtz8-33" value="Fecha" style="ellipse;whiteSpace=wrap;html=1;align=center;" parent="1" vertex="1">
          <mxGeometry x="605" width="50" height="30" as="geometry" />
        </mxCell>
        <mxCell id="s_enHsbSLCVRt0OUGtz8-34" value="" style="endArrow=none;html=1;rounded=0;" parent="1" source="WPeZcVtWTrE09q6uw6rg-4" target="s_enHsbSLCVRt0OUGtz8-35" edge="1">
          <mxGeometry relative="1" as="geometry">
            <mxPoint x="571.5246167629061" y="180" as="sourcePoint" />
            <mxPoint x="495" y="335" as="targetPoint" />
          </mxGeometry>
        </mxCell>
        <mxCell id="s_enHsbSLCVRt0OUGtz8-35" value="Cantidad" style="ellipse;whiteSpace=wrap;html=1;align=center;" parent="1" vertex="1">
          <mxGeometry x="625" y="70" width="50" height="30" as="geometry" />
        </mxCell>
        <mxCell id="s_enHsbSLCVRt0OUGtz8-36" value="" style="endArrow=none;html=1;rounded=0;" parent="1" source="WPeZcVtWTrE09q6uw6rg-4" target="s_enHsbSLCVRt0OUGtz8-37" edge="1">
          <mxGeometry relative="1" as="geometry">
            <mxPoint x="538.808247049923" y="180" as="sourcePoint" />
            <mxPoint x="495" y="335" as="targetPoint" />
            <Array as="points">
              <mxPoint x="570" y="200" />
            </Array>
          </mxGeometry>
        </mxCell>
        <mxCell id="s_enHsbSLCVRt0OUGtz8-37" value="Num_cuenta" style="ellipse;whiteSpace=wrap;html=1;align=center;" parent="1" vertex="1">
          <mxGeometry x="445" y="80" width="50" height="30" as="geometry" />
        </mxCell>
        <mxCell id="s_enHsbSLCVRt0OUGtz8-38" value="Titularidad" style="shape=rhombus;perimeter=rhombusPerimeter;whiteSpace=wrap;html=1;align=center;fillColor=#76608a;fontColor=#ffffff;strokeColor=#432D57;" parent="1" vertex="1">
          <mxGeometry x="55" y="290" width="90" height="40" as="geometry" />
        </mxCell>
        <mxCell id="s_enHsbSLCVRt0OUGtz8-39" value="" style="endArrow=none;html=1;rounded=0;exitX=0;exitY=0.5;exitDx=0;exitDy=0;" parent="1" source="s_enHsbSLCVRt0OUGtz8-38" target="s_enHsbSLCVRt0OUGtz8-1" edge="1">
          <mxGeometry relative="1" as="geometry">
            <mxPoint x="277" y="340" as="sourcePoint" />
            <mxPoint x="230" y="370" as="targetPoint" />
          </mxGeometry>
        </mxCell>
        <mxCell id="s_enHsbSLCVRt0OUGtz8-40" value="(1,1)" style="resizable=0;html=1;whiteSpace=wrap;align=right;verticalAlign=bottom;" parent="s_enHsbSLCVRt0OUGtz8-39" connectable="0" vertex="1">
          <mxGeometry x="1" relative="1" as="geometry">
            <mxPoint x="34" as="offset" />
          </mxGeometry>
        </mxCell>
        <mxCell id="s_enHsbSLCVRt0OUGtz8-41" value="" style="endArrow=none;html=1;rounded=0;exitX=1;exitY=0.5;exitDx=0;exitDy=0;" parent="1" source="s_enHsbSLCVRt0OUGtz8-38" target="s_enHsbSLCVRt0OUGtz8-2" edge="1">
          <mxGeometry relative="1" as="geometry">
            <mxPoint x="277" y="340" as="sourcePoint" />
            <mxPoint x="450" y="370" as="targetPoint" />
          </mxGeometry>
        </mxCell>
        <mxCell id="s_enHsbSLCVRt0OUGtz8-42" value="(1,N)" style="resizable=0;html=1;whiteSpace=wrap;align=right;verticalAlign=bottom;" parent="s_enHsbSLCVRt0OUGtz8-41" connectable="0" vertex="1">
          <mxGeometry x="1" relative="1" as="geometry">
            <mxPoint as="offset" />
          </mxGeometry>
        </mxCell>
        <mxCell id="s_enHsbSLCVRt0OUGtz8-43" value="Tiene" style="shape=rhombus;perimeter=rhombusPerimeter;whiteSpace=wrap;html=1;align=center;fillColor=#76608a;fontColor=#ffffff;strokeColor=#432D57;" parent="1" vertex="1">
          <mxGeometry x="220" y="460" width="90" height="40" as="geometry" />
        </mxCell>
        <mxCell id="s_enHsbSLCVRt0OUGtz8-44" value="" style="endArrow=none;html=1;rounded=0;exitX=0;exitY=0.5;exitDx=0;exitDy=0;" parent="1" source="s_enHsbSLCVRt0OUGtz8-43" target="s_enHsbSLCVRt0OUGtz8-2" edge="1">
          <mxGeometry relative="1" as="geometry">
            <mxPoint x="167" y="260" as="sourcePoint" />
            <mxPoint x="120" y="290" as="targetPoint" />
          </mxGeometry>
        </mxCell>
        <mxCell id="s_enHsbSLCVRt0OUGtz8-45" value="(1,N)" style="resizable=0;html=1;whiteSpace=wrap;align=right;verticalAlign=bottom;" parent="s_enHsbSLCVRt0OUGtz8-44" connectable="0" vertex="1">
          <mxGeometry x="1" relative="1" as="geometry">
            <mxPoint x="34" as="offset" />
          </mxGeometry>
        </mxCell>
        <mxCell id="s_enHsbSLCVRt0OUGtz8-46" value="" style="endArrow=none;html=1;rounded=0;exitX=1;exitY=0.5;exitDx=0;exitDy=0;" parent="1" source="s_enHsbSLCVRt0OUGtz8-43" target="s_enHsbSLCVRt0OUGtz8-22" edge="1">
          <mxGeometry relative="1" as="geometry">
            <mxPoint x="167" y="260" as="sourcePoint" />
            <mxPoint x="340" y="290" as="targetPoint" />
          </mxGeometry>
        </mxCell>
        <mxCell id="s_enHsbSLCVRt0OUGtz8-47" value="(1,1)" style="resizable=0;html=1;whiteSpace=wrap;align=right;verticalAlign=bottom;" parent="s_enHsbSLCVRt0OUGtz8-46" connectable="0" vertex="1">
          <mxGeometry x="1" relative="1" as="geometry">
            <mxPoint as="offset" />
          </mxGeometry>
        </mxCell>
        <mxCell id="s_enHsbSLCVRt0OUGtz8-58" value="Pertenece" style="shape=rhombus;perimeter=rhombusPerimeter;whiteSpace=wrap;html=1;align=center;fillColor=#76608a;fontColor=#ffffff;strokeColor=#432D57;" parent="1" vertex="1">
          <mxGeometry x="280" y="270" width="90" height="40" as="geometry" />
        </mxCell>
        <mxCell id="s_enHsbSLCVRt0OUGtz8-59" value="" style="endArrow=none;html=1;rounded=0;exitX=0;exitY=0.5;exitDx=0;exitDy=0;entryX=1;entryY=0;entryDx=0;entryDy=0;" parent="1" source="s_enHsbSLCVRt0OUGtz8-58" target="s_enHsbSLCVRt0OUGtz8-2" edge="1">
          <mxGeometry relative="1" as="geometry">
            <mxPoint x="257" y="260" as="sourcePoint" />
            <mxPoint x="210" y="290" as="targetPoint" />
          </mxGeometry>
        </mxCell>
        <mxCell id="s_enHsbSLCVRt0OUGtz8-60" value="(1,1)" style="resizable=0;html=1;whiteSpace=wrap;align=right;verticalAlign=bottom;" parent="s_enHsbSLCVRt0OUGtz8-59" connectable="0" vertex="1">
          <mxGeometry x="1" relative="1" as="geometry">
            <mxPoint x="34" as="offset" />
          </mxGeometry>
        </mxCell>
        <mxCell id="s_enHsbSLCVRt0OUGtz8-61" value="" style="endArrow=none;html=1;rounded=0;exitX=1;exitY=0.5;exitDx=0;exitDy=0;" parent="1" source="s_enHsbSLCVRt0OUGtz8-58" target="WPeZcVtWTrE09q6uw6rg-4" edge="1">
          <mxGeometry relative="1" as="geometry">
            <mxPoint x="257" y="260" as="sourcePoint" />
            <mxPoint x="513.8888888888887" y="220" as="targetPoint" />
          </mxGeometry>
        </mxCell>
        <mxCell id="s_enHsbSLCVRt0OUGtz8-62" value="(1,N)" style="resizable=0;html=1;whiteSpace=wrap;align=right;verticalAlign=bottom;" parent="s_enHsbSLCVRt0OUGtz8-61" connectable="0" vertex="1">
          <mxGeometry x="1" relative="1" as="geometry">
            <mxPoint as="offset" />
          </mxGeometry>
        </mxCell>
        <mxCell id="WPeZcVtWTrE09q6uw6rg-1" value="" style="endArrow=none;html=1;rounded=0;" edge="1" target="WPeZcVtWTrE09q6uw6rg-2" parent="1" source="s_enHsbSLCVRt0OUGtz8-1">
          <mxGeometry relative="1" as="geometry">
            <mxPoint x="380" y="365" as="sourcePoint" />
            <mxPoint x="440" y="365" as="targetPoint" />
          </mxGeometry>
        </mxCell>
        <mxCell id="WPeZcVtWTrE09q6uw6rg-2" value="&lt;u&gt;DNI&lt;/u&gt;" style="ellipse;whiteSpace=wrap;html=1;align=center;" vertex="1" parent="1">
          <mxGeometry x="120" y="70" width="50" height="30" as="geometry" />
        </mxCell>
        <mxCell id="WPeZcVtWTrE09q6uw6rg-4" value="transacción" style="shape=ext;margin=3;double=1;whiteSpace=wrap;html=1;align=center;fillColor=#f0a30a;fontColor=#000000;strokeColor=#BD7000;" vertex="1" parent="1">
          <mxGeometry x="540" y="200" width="100" height="40" as="geometry" />
        </mxCell>
        <mxCell id="WPeZcVtWTrE09q6uw6rg-5" value="" style="endArrow=none;html=1;rounded=0;" edge="1" target="WPeZcVtWTrE09q6uw6rg-6" parent="1" source="s_enHsbSLCVRt0OUGtz8-2">
          <mxGeometry relative="1" as="geometry">
            <mxPoint x="380" y="315" as="sourcePoint" />
            <mxPoint x="440" y="315" as="targetPoint" />
          </mxGeometry>
        </mxCell>
        <mxCell id="WPeZcVtWTrE09q6uw6rg-6" value="&lt;u&gt;IBAN&lt;/u&gt;" style="ellipse;whiteSpace=wrap;html=1;align=center;" vertex="1" parent="1">
          <mxGeometry x="20" y="550" width="50" height="30" as="geometry" />
        </mxCell>
        <mxCell id="WPeZcVtWTrE09q6uw6rg-7" value="" style="endArrow=none;html=1;rounded=0;" edge="1" target="WPeZcVtWTrE09q6uw6rg-8" parent="1" source="s_enHsbSLCVRt0OUGtz8-22">
          <mxGeometry relative="1" as="geometry">
            <mxPoint x="380" y="315" as="sourcePoint" />
            <mxPoint x="440" y="315" as="targetPoint" />
          </mxGeometry>
        </mxCell>
        <mxCell id="WPeZcVtWTrE09q6uw6rg-8" value="&lt;u&gt;ID&lt;/u&gt;" style="ellipse;whiteSpace=wrap;html=1;align=center;" vertex="1" parent="1">
          <mxGeometry x="490" y="580" width="50" height="30" as="geometry" />
        </mxCell>
      </root>
    </mxGraphModel>
  </diagram>
</mxfile>
